<svg xmlns="http://www.w3.org/2000/svg" xmlns:xlink="http://www.w3.org/1999/xlink" version="1.1" x="0px" y="0px" viewBox="0 0 100 125" enable-background="new 0 0 100 100" xml:space="preserve"><path d="M45.441,21.241C44.27,22.324,23.59,22.617,6.749,63.438c0,0,23.241,1.428,35.834,8.699  C42.583,72.137,44.532,30.459,45.441,21.241z"/><path d="M46.609,20.981c0,0-2.986,36.613-2.727,51.544c0,0,18.567-7.531,49.467-7.27C93.35,65.256,74.525,20.462,46.609,20.981z   M74.525,61.619L61.02,62.918c-4.283-0.129-5.971-4.414-5.971-4.414l-7.791-25.967c5.453,3.505,12.984,0.39,12.984,0.39  c2.598-1.429,5.584,0.129,5.584,0.129l11.684,23.63C79.328,60.711,74.525,61.619,74.525,61.619z"/><path d="M54.918,53.699l-5.972-18.955c0,0,5.195,2.337,12.205-0.779c0,0,2.467-0.52,3.506-0.13l11.426,24.149"/><path d="M55.049,54.998c0,0,1.947,6.881,6.881,6.75l12.074-1.037c0,0,1.689-0.779,2.078-1.688L55.049,54.998z"/><text x="0" y="115" fill="#000000" font-size="5px" font-weight="bold" font-family="'Helvetica Neue', Helvetica, Arial-Unicode, Arial, Sans-serif">Created by Boudewijn Mijnlieff</text><text x="0" y="120" fill="#000000" font-size="5px" font-weight="bold" font-family="'Helvetica Neue', Helvetica, Arial-Unicode, Arial, Sans-serif">from the Noun Project</text></svg>