<?xml version="1.0" encoding="UTF-8" standalone="no"?>
<svg width="41px" height="58px" viewBox="0 0 41 58" version="1.1" xmlns="http://www.w3.org/2000/svg" xmlns:xlink="http://www.w3.org/1999/xlink" xmlns:sketch="http://www.bohemiancoding.com/sketch/ns">
    <!-- Generator: Sketch 3.4.4 (17249) - http://www.bohemiancoding.com/sketch -->
    <title>fire</title>
    <desc>Created with Sketch.</desc>
    <defs></defs>
    <g id="Page-1" stroke="none" stroke-width="1" fill="none" fill-rule="evenodd" sketch:type="MSPage">
        <g id="Desktop-HD" sketch:type="MSArtboardGroup" transform="translate(-764.000000, -388.000000)">
            <g id="vuur" sketch:type="MSLayerGroup" transform="translate(725.000000, 388.000000)">
                <g id="fire" transform="translate(39.000000, 0.000000)" sketch:type="MSShapeGroup">
                    <path d="M7.63531445,57.9471527 L7.63531419,50.9627802 L-3.19744231e-14,49.3704555 L35.1130368,35.1467067 L41,37.2147229 L40.6203704,43.9583458 L7.63531445,57.9471527 Z" id="Path-33" fill="#7D4D1F"></path>
                    <path d="M5.66666667,46.9408014 L19.6565356,52.8683042 L22.8691626,51.1123656 L34.3727775,49.1850768 L10.1178512,40.0494443 L6.72734871,40.0494443 L5.66666667,46.9408014 Z" id="Path-31-Copy" fill="#623B15"></path>
                    <path d="M1.04853643e-08,49.1545283 L0,56.8701241 L7.47145722,57.8061957 L7.47145699,50.5615396 L1.04853643e-08,49.1545283 Z" id="Path-34" fill="#E1A871"></path>
                    <path d="M3.06468292,44.7233064 L31.2773293,57.7353889 L37.6515379,55.2423655 L37.8921863,48.7891202 L7.39473198,36.1972933 L2.66666667,38.0947787 L3.06468292,44.7233064 Z" id="Path-31" fill="#7D4D1F"></path>
                    <path d="M31.3333333,57.3755918 L31.3333333,50.6868767 L37.5999261,48.4541373 L37.6664424,54.9628183 L31.3333333,57.3755918 Z" id="Path-32" fill="#E1A871"></path>
                    <path d="M4.87212473,13.0584155 C4.87212473,13.0584155 9.18366396,16.8798322 8.03762405,19.8403428 C6.89158415,22.8008534 0.477895157,28.2045525 5.66672969,35.3133302 C10.8555642,42.4221079 18.5987631,44.8470064 27.6411089,41.1864178 C36.6834547,37.5258293 34.1898186,32.1646196 34.1898163,28.1895625 C34.1898151,25.9322085 29.8524362,25.9890468 32.3887118,19.8106999 C34.9249875,13.632353 30.3007744,12.6932392 30.3007744,12.6932392 C30.3007744,12.6932392 29.9461101,16.0252327 28.3904924,18.3096315 C26.8348748,20.5940304 26.2159882,21.7601966 26.2159882,21.7601966 C26.2159882,21.7601966 31.0553899,12.1968776 25.0705943,7.41805613 C19.0857987,2.63923462 27.0616288,0.127152691 27.0616288,0.127152691 C27.0616288,0.127152691 20.0621509,0.133458981 20.0621506,6.95764414 C20.0621503,13.7818293 21.3333748,13.0584155 21.3333671,13.0584151 C19.7868871,12.9785502 15.7401236,6.95764441 15.7401236,6.95764441 C15.7401236,6.95764441 12.4594724,4.64616566 16.3531969,0.569904786 C16.3531971,0.569904594 9.65078343,3.83131637 9.65009063,9.69677881 C9.64999312,10.5223666 12.1023849,14.8351452 12.2535523,18.5486672 C12.3049262,19.8107003 4.87212473,13.0584155 4.87212473,13.0584155 Z" id="Path-36" stroke="#ED7E2D" stroke-width="3" stroke-linecap="round" stroke-linejoin="round" fill="#FCB040"></path>
                </g>
            </g>
        </g>
    </g>
</svg>