<?xml version="1.0" encoding="UTF-8" standalone="no"?>
<svg width="24px" height="40px" viewBox="0 0 24 40" version="1.1" xmlns="http://www.w3.org/2000/svg" xmlns:xlink="http://www.w3.org/1999/xlink" xmlns:sketch="http://www.bohemiancoding.com/sketch/ns">
    <!-- Generator: Sketch 3.4.4 (17249) - http://www.bohemiancoding.com/sketch -->
    <title>sleeping bag</title>
    <desc>Created with Sketch.</desc>
    <defs></defs>
    <g id="Page-1" stroke="none" stroke-width="1" fill="none" fill-rule="evenodd" sketch:type="MSPage">
        <g id="Desktop-HD" sketch:type="MSArtboardGroup" transform="translate(-775.000000, -243.000000)">
            <g id="Sleepingbag" sketch:type="MSLayerGroup" transform="translate(726.000000, 240.000000)">
                <g id="sleeping-bag" transform="translate(60.914894, 23.000000) rotate(-270.000000) translate(-60.914894, -23.000000) translate(40.914894, 11.085106)" sketch:type="MSShapeGroup">
                    <path d="M5.74534036,1.40339523 C3.36794548,2.97096553 6.07238242e-09,4.74662707 -1.77635684e-14,13.3423919 C-6.07241794e-09,21.9381568 6.4114827,24.1515915 9.04729819,23.4454217 C9.0472982,23.4454207 13.9277956,24.3701058 16.5916286,23.2123894 C16.5916284,23.2123905 17.7141536,23.7313151 18.9303158,22.8311992 C18.9303155,22.8312003 20.272553,23.6356441 29.3932127,22.146248 C29.3932134,22.1462474 30.064147,22.3476386 30.9802317,21.8499322 C30.9802319,21.8499322 34.6231888,22.9023 37.1646288,19.3967647 C37.1646288,19.3967652 42.3595812,13.6037154 37.5351175,2.97096552 C37.5351169,2.97096551 34.773594,-0.559138809 30.7078026,0.531571481 C30.707803,0.531571483 29.1347922,0.637664462 29.1347922,0.637664462 C29.1347922,0.637664462 24.9713095,-0.679005326 17.2732542,0.471638254 C17.2732539,0.471638256 14.7738376,0.517798007 14.7738376,0.517798007 C14.7738376,0.517798007 8.12273525,-0.164175064 5.74534036,1.40339523 Z" id="Path-38" fill="#2A95B5"></path>
                    <path d="M14.8672948,0.451087514 C14.8672948,0.451087514 24.2655192,7.86801396 16.5466039,23.1612242 C16.5466039,23.1612236 17.406805,23.7301772 18.8058504,22.9707173 C18.8058504,22.9707169 26.3233882,10.7435549 16.9603822,0.451087514 C16.9603823,0.451087514 14.8672948,0.451087514 14.8672948,0.451087514 Z" id="Path-39" fill="#FCC8A3"></path>
                    <path d="M28.7384951,0.451087514 C28.7384951,0.451087514 37.2999291,6.6330689 29.5810138,21.9262791 C29.5810138,21.9262786 30.8315826,22.4704002 31.4345371,21.9262791 C31.434537,21.9262787 40.1945885,10.7435549 30.8315825,0.451087514 C30.8315826,0.451087514 28.7384951,0.451087514 28.7384951,0.451087514 Z" id="Path-39" fill="#FCC8A3"></path>
                </g>
            </g>
        </g>
    </g>
</svg>