<?xml version="1.0" encoding="UTF-8" standalone="no"?>
<svg width="131px" height="123px" viewBox="0 0 131 123" version="1.1" xmlns="http://www.w3.org/2000/svg" xmlns:xlink="http://www.w3.org/1999/xlink" xmlns:sketch="http://www.bohemiancoding.com/sketch/ns">
    <!-- Generator: Sketch 3.4.4 (17249) - http://www.bohemiancoding.com/sketch -->
    <title>Tafel</title>
    <desc>Created with Sketch.</desc>
    <defs></defs>
    <g id="Page-1" stroke="none" stroke-width="1" fill="none" fill-rule="evenodd" sketch:type="MSPage">
        <g id="Desktop-HD" sketch:type="MSArtboardGroup" transform="translate(-965.000000, -312.000000)">
            <g id="Tafel" sketch:type="MSLayerGroup" transform="translate(965.000000, 312.000000)">
                <path d="M47,85.39618 L48.0690204,122.176178 L55.1069756,116.801933 L54.885378,79 L47,85.39618 Z" id="Path-6" fill="#A57E43" sketch:type="MSShapeGroup"></path>
                <path d="M48.2177038,122.14856 L41,118.509982 L41.0000001,79 L48.2177038,84.3074064 L48.2177038,122.14856 Z" id="Path-7" fill="#956D32" sketch:type="MSShapeGroup"></path>
                <path d="M122,36.3294911 L122,73.8684344 L130.106976,68.801933 L129.885378,31 L122,36.3294911 Z" id="Path-6" fill="#A57E43" sketch:type="MSShapeGroup"></path>
                <path d="M122.531988,73.6664583 L115,70.5099824 L115,31 L122.531988,36.143129 L122.531988,73.6664583 Z" id="Path-7" fill="#956D32" sketch:type="MSShapeGroup"></path>
                <path d="M81.9751751,1 L0,59.5341092 L47.9237577,92.9262771 L130,37.7367744 L81.9751751,1 Z" id="Path-2" fill="#A57E43" sketch:type="MSShapeGroup"></path>
                <path d="M6.97709084,94.9921199 L-6.82043913e-32,90.5099824 L7.29944208e-08,51 L6.97709084,56.0147393 L6.97709084,94.9921199 Z" id="Path-7" fill="#956D32" sketch:type="MSShapeGroup"></path>
                <path d="M6,58.316707 L6.92974222,95.0434647 L12.7990013,90.6151702 L13.5186833,54 L6,58.316707 Z" id="Path-6" fill="#A57E43" sketch:type="MSShapeGroup"></path>
                <path d="M81.5023117,0.391151667 L0,51.4319973 L47.9237577,84.8241652 L130,31.1594889 L81.5023117,0.391151667 Z" id="Path-2-Copy" fill="#BA8C47" sketch:type="MSShapeGroup"></path>
                <path d="M0.30967505,51 L0,60.1935153 L48.3035889,93.5454102 L48.3035889,84.7254028 L0.30967505,51 Z" id="Path-8" fill="#946D32" sketch:type="MSShapeGroup"></path>
            </g>
        </g>
    </g>
</svg>