<?xml version="1.0" encoding="UTF-8" standalone="no"?>
<svg width="48px" height="37px" viewBox="0 0 48 37" version="1.1" xmlns="http://www.w3.org/2000/svg" xmlns:xlink="http://www.w3.org/1999/xlink" xmlns:sketch="http://www.bohemiancoding.com/sketch/ns">
    <!-- Generator: Sketch 3.4.4 (17249) - http://www.bohemiancoding.com/sketch -->
    <title>weather</title>
    <desc>Created with Sketch.</desc>
    <defs></defs>
    <g id="Page-1" stroke="none" stroke-width="1" fill="none" fill-rule="evenodd" sketch:type="MSPage">
        <g id="game-full" sketch:type="MSArtboardGroup" transform="translate(-1356.000000, -133.000000)" fill="#3A414C">
            <g id="Weather" sketch:type="MSLayerGroup" transform="translate(1271.000000, 77.000000)">
                <g id="weather" transform="translate(85.000000, 56.000000)" sketch:type="MSShapeGroup">
                    <g id="Group">
                        <g id="Shape">
                            <path d="M27.635,15.015 C28.463,15.015 29.135,14.344 29.135,13.515 C29.135,11.034 31.154,9.015 33.635,9.015 C36.116,9.015 38.135,11.034 38.135,13.515 C38.135,15.117 37.273,16.611 35.884,17.414 C35.167,17.829 34.922,18.747 35.336,19.463 C35.614,19.943 36.118,20.213 36.636,20.213 C36.891,20.213 37.15,20.148 37.386,20.011 C39.699,18.674 41.135,16.184 41.135,13.515 C41.135,9.379 37.771,6.015 33.635,6.015 C29.499,6.015 26.135,9.379 26.135,13.515 C26.135,14.343 26.807,15.015 27.635,15.015 L27.635,15.015 Z"></path>
                            <path d="M30.643,3.871 C30.761,4.609 31.399,5.135 32.122,5.135 C32.201,5.135 32.28,5.129 32.36,5.116 C33.178,4.985 33.736,4.216 33.605,3.398 L33.29,1.423 C33.159,0.604 32.384,0.05 31.572,0.178 C30.754,0.309 30.196,1.078 30.327,1.896 L30.643,3.871 L30.643,3.871 Z"></path>
                            <path d="M47.03,11.384 C46.899,10.567 46.137,10.009 45.312,10.139 L43.336,10.454 C42.518,10.584 41.961,11.353 42.091,12.172 C42.209,12.91 42.846,13.436 43.57,13.436 C43.648,13.436 43.728,13.43 43.808,13.417 L45.784,13.102 C46.604,12.972 47.16,12.203 47.03,11.384 L47.03,11.384 Z"></path>
                            <path d="M38.687,6.628 C38.954,6.821 39.261,6.914 39.567,6.914 C40.031,6.914 40.489,6.699 40.783,6.294 L41.957,4.675 C42.442,4.004 42.293,3.067 41.623,2.58 C40.95,2.094 40.015,2.242 39.527,2.914 L38.353,4.533 C37.867,5.204 38.017,6.142 38.687,6.628 L38.687,6.628 Z"></path>
                            <path d="M23.102,7.681 L24.721,8.855 C24.988,9.048 25.295,9.141 25.601,9.141 C26.065,9.141 26.523,8.926 26.817,8.521 C27.302,7.85 27.153,6.913 26.483,6.426 L24.864,5.252 C24.191,4.766 23.256,4.915 22.768,5.586 C22.282,6.257 22.432,7.194 23.102,7.681 L23.102,7.681 Z"></path>
                            <path d="M44.294,19.339 L42.675,18.165 C42.003,17.679 41.067,17.827 40.579,18.499 C40.094,19.17 40.243,20.107 40.913,20.594 L42.532,21.768 C42.799,21.961 43.106,22.054 43.412,22.054 C43.876,22.054 44.334,21.839 44.628,21.434 C45.113,20.763 44.964,19.825 44.294,19.339 L44.294,19.339 Z"></path>
                            <path d="M35.716,22.725 C34.712,18.736 31.142,15.849 27,15.849 C26.737,15.849 26.458,15.849 26.167,15.863 C23.988,12.967 20.627,11.266 17,11.266 C10.758,11.266 5.661,16.26 5.504,22.457 C2.559,23.32 0.5,26.623 0.5,29.621 C0.5,33.104 3.28,37 7,37 L35,37 C38.72,37 41.5,33.103 41.5,29.619 C41.5,26.179 38.871,23.132 35.716,22.725 L35.716,22.725 Z M35,34 L7,34 C5.115,34 3.5,31.592 3.5,29.621 C3.5,27.681 5.064,25.318 6.911,25.244 C6.945,25.247 6.978,25.249 7.009,25.25 C7.46,25.265 7.856,25.088 8.149,24.772 C8.443,24.456 8.587,24.029 8.544,23.6 C8.516,23.319 8.501,23.04 8.501,22.751 C8.501,18.072 12.314,14.265 17.001,14.265 C19.913,14.265 22.597,15.758 24.181,18.258 C24.515,18.787 25.142,19.05 25.758,18.924 C26.115,18.848 26.546,18.848 27.001,18.848 C30.007,18.848 32.564,21.15 32.947,24.202 C33.031,24.873 33.547,25.386 34.182,25.494 C34.356,25.571 34.643,25.678 35,25.678 C36.832,25.678 38.5,27.556 38.5,29.618 C38.5,31.591 36.885,34 35,34 L35,34 Z"></path>
                        </g>
                    </g>
                </g>
            </g>
        </g>
    </g>
</svg>